<svg xmlns="http://www.w3.org/2000/svg" viewBox="0 0 33.85 23.75"><defs><style>.cls-1{opacity:0.75;}.cls-2{fill:none;stroke:#818181;stroke-miterlimit:10;stroke-width:0.75px;}.cls-3{fill:#818181;}</style></defs><g id="Capa_2" data-name="Capa 2"><g id="Layer_1" data-name="Layer 1"><g class="cls-1"><path class="cls-2" d="M16.92.44C18.69,2.75,21,9.32,21,11.87S18.75,21,16.92,23.37m0,.06c-1.76-2.37-4.07-8.94-4.07-11.49S15.1,2.81,16.92.44M.44,11.87H33.53M16.92,23.37c9.13,0,16.55-5.17,16.55-11.5S26.05.38,16.92.38.38,5.55.38,11.87s7.42,11.5,16.54,11.5m0,0c-2.79,0-11-5.9-11-11.5S14.19.44,16.92.44m0,0c2.8,0,10.53,6,10.53,11.56S19.78,23.37,17,23.37m10.4-2.55c-2-1-7.85-1.58-10.53-1.58s-8.39.6-10.4,1.52M27.39,3.05c-2,1-7.85,1.58-10.53,1.58S8.47,4,6.46,3.11"/><path class="cls-3" d="M13.33,13.64v.67c0,.55.25,1,.92,1a.89.89,0,0,0,.79-1c0-.79-.61-1.1-1.22-1.46a7.55,7.55,0,0,1-1.7-1.4,2.7,2.7,0,0,1-.55-1.83A2.41,2.41,0,0,1,14.19,7c1.88,0,2.73,1.33,2.61,3.16H15c0-.55-.06-1.34-.79-1.4-.43-.06-.67.24-.73.67-.06.61.24.85.67,1.22a13.35,13.35,0,0,1,1.94,1.46,2.86,2.86,0,0,1,.79,2.25c0,1.88-.91,2.92-2.67,2.92a2.34,2.34,0,0,1-2.68-2.44v-1l1.82-.12Z"/><polygon class="cls-3" points="17.53 7.19 23.07 7.19 23.07 9.14 21.24 9.14 21.24 16.86 19.3 16.86 19.3 9.14 17.53 9.14 17.53 7.19"/><polygon class="cls-3" points="25.63 8.95 26.23 13.27 24.96 13.27 24.77 14.98 26.42 14.98 26.72 16.86 28.55 16.86 26.9 7.19 24.35 7.19 22.64 16.86 24.47 16.86 25.63 8.95"/><polygon class="cls-3" points="7.86 8.95 8.47 13.27 7.25 13.27 7.01 14.98 8.71 14.98 9.02 16.86 10.78 16.86 9.2 7.19 6.58 7.19 4.94 16.86 6.76 16.86 7.86 8.95"/></g></g></g></svg>