<svg xmlns="http://www.w3.org/2000/svg" viewBox="0 0 52.97 20.21"><defs><style>.cls-1{opacity:.75}.cls-2{fill:#818181}.cls-3{fill:#5b5a5d}.cls-4{fill:none;stroke:#818181;stroke-miterlimit:10;stroke-width:.75px}</style></defs><g id="Capa_2" data-name="Capa 2"><g id="Layer_1" data-name="Layer 1"><g class="cls-1"><polygon points="12.51 12.17 6.08 12.17 5.85 12.96 7.59 12.96 7.87 14.02 10.72 14.02 11 12.96 12.73 12.96 12.51 12.17" class="cls-2"/><path d="M7.14,7.87A1.59,1.59,0,0,0,6.86,9a1.61,1.61,0,0,0,.62,1L9,11.11c0,.06.11.17.16.22s0,.23-.05.28l.22.17.78-1.12a1.67,1.67,0,0,0,.28-.89V9.54a1.6,1.6,0,0,0-.61-1L8.26,7.42c-.06-.06-.11-.17-.17-.22V7.14c0-.06,0-.17.06-.22h0l-.23-.17L7.14,7.87" class="cls-2"/><path d="M8.09,3.39A2.2,2.2,0,0,0,7.7,4.68V5a2.4,2.4,0,0,0,.89,1.45l1.9,1.4a.88.88,0,0,1,.45.78v.17a1,1,0,0,1-.22.67h0l.17.11L12.4,7.48a2.15,2.15,0,0,0,.39-1.63,2.37,2.37,0,0,0-.9-1.45L9.54,2.72a.84.84,0,0,1-.28-.44.58.58,0,0,1,.12-.51l-.06-.05Z" class="cls-2"/><path d="M4.12,14.63H5.85a1.34,1.34,0,0,1,1,.34.92.92,0,0,1,.28.67h0a.9.9,0,0,1-.5.84,1,1,0,0,1,.72.95h0c0,.67-.56,1.06-1.39,1.06H4.12ZM5.69,16.2c.39,0,.61-.11.61-.39h0c0-.23-.17-.4-.56-.4H4.9v.79Zm.22,1.51c.39,0,.62-.11.62-.39h0c0-.28-.17-.4-.62-.4H5v.84h1Z" class="cls-2"/><path d="M7.7,14.63H9.43a1.34,1.34,0,0,1,1,.34.92.92,0,0,1,.28.67h0a.91.91,0,0,1-.5.84,1,1,0,0,1,.72.95h0c0,.67-.56,1.06-1.4,1.06H7.76V14.63ZM9.26,16.2c.4,0,.62-.11.62-.39h0c0-.23-.17-.4-.56-.4H8.48v.79Zm.23,1.51c.39,0,.61-.11.61-.39h0c0-.28-.16-.4-.61-.4h-1v.84h1Z" class="cls-2"/><path d="M11.28,14.63H13A1.36,1.36,0,0,1,14,15a1,1,0,0,1,.28.67h0a.91.91,0,0,1-.51.84,1,1,0,0,1,.73.95h0c0,.67-.56,1.06-1.4,1.06H11.33V14.63Zm1.56,1.57c.39,0,.62-.11.62-.39h0c0-.23-.17-.4-.56-.4h-.84v.79Zm.23,1.51c.39,0,.61-.11.61-.39h0c0-.28-.17-.4-.61-.4h-1v.84h1Z" class="cls-2"/><polygon points="22.74 7.08 22.29 8.15 23.13 8.15 22.74 7.08" class="cls-2"/><path d="M23.19,12.62h0c0-.22-.17-.34-.45-.34H22V13h.67C23,13,23.19,12.84,23.19,12.62Z" class="cls-2"/><path d="M39.18,7.87h0a1,1,0,0,0-1-1h-.56v2h.56A.88.88,0,0,0,39.18,7.87Z" class="cls-2"/><path d="M48.68,6.92h-.56V8.87h.56a1,1,0,0,0,1-.95h0A1,1,0,0,0,48.68,6.92Z" class="cls-2"/><path d="M22.79,13.57H22v.73h.83c.34,0,.51-.12.51-.34h0C23.35,13.68,23.19,13.57,22.79,13.57Z" class="cls-2"/><path d="M49.8.32H18.1V19.83H49.85a2.74,2.74,0,0,0,2.74-2.74v-14A2.8,2.8,0,0,0,49.8.32ZM40.41,6.25h.72V9.49h-.72Zm-3.47,0h1.29A1.65,1.65,0,0,1,40,7.87h0a1.65,1.65,0,0,1-1.73,1.62H36.94ZM34,6.25h2.46v.61H34.76v.67h1.51v.62H34.76v.67h1.79v.61H34.09V6.25Zm-11.63,0h.67l1.4,3.29h-.72l-.28-.72h-1.4l-.28.72H21ZM24.08,14c0,.61-.5.89-1.23.89H21.29V11.67h1.5a1.12,1.12,0,0,1,.84.28.71.71,0,0,1,.23.56h0a.74.74,0,0,1-.45.72.8.8,0,0,1,.67.79Zm3.13-.51A1.3,1.3,0,0,1,25.76,15a1.29,1.29,0,0,1-1.4-1.46V11.67h.73v1.84a.73.73,0,1,0,1.45,0V11.67h.73v1.84ZM26,9.54a1.64,1.64,0,0,1-1.68-1.67h0A1.62,1.62,0,0,1,26,6.19a1.71,1.71,0,0,1,1.28.5l-.44.51A1.2,1.2,0,0,0,26,6.8a1,1,0,0,0-.95,1h0a1,1,0,0,0,.95,1,1.12,1.12,0,0,0,.84-.39l.44.44A1.3,1.3,0,0,1,26,9.54Zm4,4.42c0,.67-.5,1-1.17,1a2.14,2.14,0,0,1-1.4-.51l.45-.5a1.6,1.6,0,0,0,.95.39c.28,0,.45-.11.45-.28h0c0-.16-.12-.28-.67-.39s-1.07-.33-1.07-1h0a1,1,0,0,1,1.12-1,2.3,2.3,0,0,1,1.23.39l-.39.56a1.37,1.37,0,0,0-.84-.34c-.28,0-.39.12-.39.28h0c0,.23.11.28.73.45s1,.34,1,1Zm-.89-4.42a1.64,1.64,0,0,1-1.68-1.67h0a1.62,1.62,0,0,1,1.68-1.68,1.71,1.71,0,0,1,1.28.5L30,7.2a1.2,1.2,0,0,0-.84-.4,1,1,0,0,0-1,1h0a1,1,0,0,0,1,1A1.12,1.12,0,0,0,30,8.43l.5.56A1.69,1.69,0,0,1,29.17,9.54Zm2.07,5.37h-.73V11.67h.73Zm.33-5.42h-.72V6.25h1.51a1.34,1.34,0,0,1,1,.33,1.11,1.11,0,0,1,.28.73h0a1,1,0,0,1-.68,1l.79,1.18h-.84l-.67-1h-.56v1Zm3.19,5.42h-.62l-1.56-2.07v2.07h-.73V11.67h.67l1.51,2v-2h.73Zm3,0H35.32V11.67h2.46v.61H36.05V13h1.5v.62h-1.5v.67h1.73ZM40.57,14c0,.67-.5,1-1.17,1a2.14,2.14,0,0,1-1.4-.51l.45-.5a1.6,1.6,0,0,0,.95.39c.28,0,.45-.11.45-.28h0c0-.16-.11-.28-.67-.39s-1.07-.33-1.07-1h0a1,1,0,0,1,1.12-1,2.3,2.3,0,0,1,1.23.39l-.39.56a1.37,1.37,0,0,0-.84-.34c-.28,0-.39.12-.39.28h0c0,.23.11.28.73.45s1,.34,1,1Zm2.69,0c0,.67-.51,1-1.18,1a2.11,2.11,0,0,1-1.39-.51l.44-.5a1.62,1.62,0,0,0,.95.39c.28,0,.45-.11.45-.28h0c0-.16-.11-.28-.67-.39s-1.06-.33-1.06-1h0a1,1,0,0,1,1.12-1,2.36,2.36,0,0,1,1.23.39l-.4.56a1.35,1.35,0,0,0-.83-.34c-.28,0-.4.12-.4.28h0c0,.23.12.28.73.45s1,.34,1,1Zm.89-7h-1V9.49h-.73V6.92h-1V6.25H44.1v.67ZM47,9.49H44.49V6.25H47v.61H45.21v.67h1.51v.62H45.21v.67H47Zm3.41-1.62a1.65,1.65,0,0,1-1.73,1.62H47.39V6.25h1.29a1.64,1.64,0,0,1,1.73,1.62Z" class="cls-2"/><path d="M32.86,7.36h0c0-.33-.23-.44-.56-.44h-.73v1h.73C32.69,7.81,32.86,7.64,32.86,7.36Z" class="cls-2"/><path d="M14.58,18h0a.5.5,0,0,1,.5-.51.45.45,0,0,1,.45.45h0a.5.5,0,0,1-.51.5C14.8,18.49,14.58,18.27,14.58,18Zm.89,0h0a.45.45,0,1,0-.89,0h0a.43.43,0,0,0,.44.44A.44.44,0,0,0,15.47,18Zm-.61-.23h.22a.2.2,0,0,1,.17.06.18.18,0,0,1,.05.11h0c0,.06-.05.11-.11.17l.11.17h-.11l-.11-.17H15v.17h-.11Zm.22.23a.17.17,0,0,0,.11-.06h0c0-.06,0-.06-.11-.06H15V18h.11Z" class="cls-3"/><path d="M52.59,17.09a2.74,2.74,0,0,1-2.74,2.74H3.11A2.74,2.74,0,0,1,.38,17.09v-14A2.74,2.74,0,0,1,3.11.38H49.85a2.74,2.74,0,0,1,2.74,2.73Z" class="cls-4"/></g></g></g></svg>