<svg xmlns="http://www.w3.org/2000/svg" viewBox="0 0 46.41 13.8"><defs><style>.cls-1{fill:#858789}</style></defs><g id="Capa_2" data-name="Capa 2"><g id="Layer_1" data-name="Layer 1"><path d="M46.41,13.8V0H32V13.8ZM43.17,4a6.34,6.34,0,0,0-3.25-1,3.76,3.76,0,0,0-2.75,1,3.42,3.42,0,0,0-1.1,2.59,3.58,3.58,0,0,0,1.1,2.58,4,4,0,0,0,2.75,1,6.21,6.21,0,0,0,3.41-1v1.48a7.31,7.31,0,0,1-3.46.83,5.36,5.36,0,0,1-2.75-.66A5.38,5.38,0,0,1,35.36,9a5.09,5.09,0,0,1-.66-2.48A4.61,4.61,0,0,1,36.18,3a5.18,5.18,0,0,1,3.69-1.43,8.11,8.11,0,0,1,3.35.83l0,1.54ZM30.41,0H16V13.8H30.41V0ZM20.46,2.09h2.47a4.2,4.2,0,0,1,1.87.33,2.19,2.19,0,0,1,1,.88,2.59,2.59,0,0,1,.33,1.32,2,2,0,0,1-1.48,2,2.4,2.4,0,0,1,1.64.88,2.37,2.37,0,0,1,.61,1.59,2.62,2.62,0,0,1-.39,1.32,3,3,0,0,1-1.1.94,4.4,4.4,0,0,1-1.81.33H20.35V2.09Z" class="cls-1"/><path d="M22.71,6.16a2.58,2.58,0,0,0,1.54-.39,1.47,1.47,0,0,0,.5-1.1c0-.88-.61-1.37-1.76-1.37H21.83V6.16Zm.39,1.21H21.83v3h1.38a5,5,0,0,0,1.48-.16,1.76,1.76,0,0,0,.66-.55,1.31,1.31,0,0,0,.22-.77,1.28,1.28,0,0,0-.28-.77,1.17,1.17,0,0,0-.71-.55A3.25,3.25,0,0,0,23.1,7.37ZM14.35,0H0V13.8H14.35Zm-10,11.6V2.09H6.82a4,4,0,0,1,1.81.33,1.92,1.92,0,0,1,1,.88A2.92,2.92,0,0,1,10,4.56a2.14,2.14,0,0,1-1.49,2,2.61,2.61,0,0,1,1.65.82A2.38,2.38,0,0,1,10.78,9a2.18,2.18,0,0,1-.39,1.32,2.6,2.6,0,0,1-1.1.93,4.43,4.43,0,0,1-1.81.33Z" class="cls-1"/><path d="M6.93,3.24H5.77V6.1h.88a2.73,2.73,0,0,0,1.54-.38,1.4,1.4,0,0,0,.5-1.1C8.69,3.74,8.08,3.24,6.93,3.24ZM7,7.37H5.77v3H7.09a5.19,5.19,0,0,0,1.54-.16,1.46,1.46,0,0,0,.66-.5,1.37,1.37,0,0,0,.22-.82,1.1,1.1,0,0,0-.27-.77,1.39,1.39,0,0,0-.72-.55A3.41,3.41,0,0,0,7,7.37Z" class="cls-1"/></g></g></svg>