<svg xmlns="http://www.w3.org/2000/svg" viewBox="0 0 37.98 17.62"><defs><style>.cls-1{opacity:.75}.cls-2{fill:#818181}</style></defs><g id="Capa_2" data-name="Capa 2"><g id="Layer_1" data-name="Layer 1"><g class="cls-1"><path d="M12.07,0H8.81a8.81,8.81,0,0,0,0,17.62H15a2.78,2.78,0,0,0,2.8-2.81V9.46L22,16.19a3.3,3.3,0,0,0,2.68,1.43,3.2,3.2,0,0,0,3.2-3.2v-5l4.24,6.73a3.3,3.3,0,0,0,2.68,1.43A3.19,3.19,0,0,0,38,14.42V.07H35.76V14.42a1,1,0,0,1-1,1.05,1.13,1.13,0,0,1-.85-.46L26.43,3a.44.44,0,0,0-.52-.13.38.38,0,0,0-.2.33V14.36a1,1,0,0,1-1,1,1.12,1.12,0,0,1-.85-.45L16.25,3a.44.44,0,0,0-.52-.13.38.38,0,0,0-.2.33V14.75a.58.58,0,0,1-.58.59H8.81a6.6,6.6,0,0,1,0-13.19h3.26Z" class="cls-2"/><path d="M12.4,12.6a.31.31,0,0,0,.33-.33h0v-9A3.19,3.19,0,0,1,15.92.07,3.28,3.28,0,0,1,18.6,1.5l4.24,6.66V3.26A3.2,3.2,0,0,1,26,.07,3.28,3.28,0,0,1,28.72,1.5L33,8.16V0h2.22V14.36a.43.43,0,0,1-.39.39.5.5,0,0,1-.33-.13L27,2.61a1.11,1.11,0,0,0-.84-.46A1,1,0,0,0,25.06,3.2V14.36a.42.42,0,0,1-.39.39.55.55,0,0,1-.33-.13l-7.5-12A1.13,1.13,0,0,0,16,2.15,1,1,0,0,0,15,3.2V14.42a.31.31,0,0,1-.33.33H8.81a6,6,0,0,1,0-12h3.26V5H8.81a3.79,3.79,0,0,0,0,7.57l3.59.07Z" class="cls-2"/></g></g></g></svg>