<svg xmlns="http://www.w3.org/2000/svg" viewBox="0 0 51.39 15.1"><defs><style>.cls-1{fill:#818181}</style></defs><g id="Capa_2" data-name="Capa 2"><g id="Layer_1" data-name="Layer 1"><path d="M0,15.1V0H10.54V15.1Zm9-1.52V1.52H1.52V13.58Z" class="cls-1"/><path d="M17.54,6.77h-.65C16,5.56,15.18,4.36,14.33,3h0V6.77H13.6V1.52h.65c.85,1.2,1.7,2.39,2.54,3.74h0V1.52h.74V6.77Z" class="cls-1"/><path d="M19.25,4.7c.21-.69.42-1.33.6-2.14h0c.21.81.4,1.45.6,2.14Zm.34-3.18L17.77,6.77h.78L19,5.34h1.58L21,6.77h1L20.35,1.52h-.76Z" class="cls-1"/><path d="M22.87,6.77V2.22H21.49v-.7h3.65v.7H23.76V6.77h-.89Z" class="cls-1"/><path d="M25.45,6.77V1.52h.89V6.77Z" class="cls-1"/><path d="M29.11,6.1c-.94,0-1.27-1-1.27-2s.37-1.89,1.27-1.89,1.27.92,1.27,1.89S30.05,6.1,29.11,6.1Zm0,.74c1.38,0,2.23-1.22,2.23-2.79A2.43,2.43,0,0,0,29.11,1.4a2.42,2.42,0,0,0-2.22,2.65c0,1.59.85,2.81,2.22,2.81Z" class="cls-1"/><path d="M35.82,6.77h-.65C34.31,5.56,33.46,4.36,32.62,3h0V6.77h-.74V1.52h.65c.86,1.2,1.71,2.39,2.55,3.74h0V1.52h.73V6.77Z" class="cls-1"/><path d="M37.54,4.7c.21-.69.42-1.33.61-2.14h0c.21.81.4,1.45.59,2.14h-1.2Zm.35-3.18L36.07,6.78h.78l.46-1.44h1.58l.41,1.44h1L38.63,1.52h-.74Z" class="cls-1"/><path d="M40.57,1.52h.9V6.07h1.77v.7H40.57Z" class="cls-1"/><path d="M17,11.17v2.17a4,4,0,0,1-1.49.32A2.53,2.53,0,0,1,13,10.92a2.55,2.55,0,0,1,2.56-2.69,2.22,2.22,0,0,1,1.27.4l-.29.63a1.91,1.91,0,0,0-1-.28c-1,0-1.61.76-1.61,1.95s.73,2,1.52,2a1.26,1.26,0,0,0,.63-.13V11.17Z" class="cls-1"/><path d="M20.2,9H18.7v1.44h1.47v.71H18.7v1.7h1.77v.71H17.8V8.31h2.4V9Z" class="cls-1"/><path d="M23,12.91c-.94,0-1.27-1-1.27-2S22.08,9,23,9s1.27.92,1.27,1.89S23.92,12.91,23,12.91Zm0,.74c1.37,0,2.23-1.22,2.23-2.79A2.43,2.43,0,0,0,23,8.21a2.43,2.43,0,0,0-2.23,2.65c0,1.58.86,2.8,2.23,2.8Z" class="cls-1"/><path d="M29.54,11.17v2.17a4.07,4.07,0,0,1-1.5.32,2.52,2.52,0,0,1-2.52-2.74,2.54,2.54,0,0,1,2.55-2.69,2.25,2.25,0,0,1,1.28.4l-.3.63a1.91,1.91,0,0,0-1-.28c-1,0-1.61.76-1.61,1.95s.74,2,1.52,2a1.23,1.23,0,0,0,.63-.13V11.17Z" class="cls-1"/><path d="M31.26,9h.4a.78.78,0,0,1,.84.69.86.86,0,0,1,0,.16.92.92,0,0,1-.79,1h-.06l-.37,0V9Zm2.29,4.55-1-2.18a1.75,1.75,0,0,0,.9-1.56c0-1-.62-1.51-1.62-1.51H30.38v5.25h.91v-2h.4l.85,2h1Z" class="cls-1"/><path d="M35,11.49c.21-.68.42-1.33.61-2.14h0c.21.81.4,1.45.59,2.14H35Zm.35-3.18-1.82,5.26h.79l.45-1.43h1.59l.41,1.43h1L36.13,8.31h-.75Z" class="cls-1"/><path d="M39.5,8.31H38.1v5.26H39v-2h.41a1.71,1.71,0,0,0,1.72-1.7s0,0,0-.06A1.43,1.43,0,0,0,39.5,8.31Zm-.13,2.6-.36,0V9h.4a.76.76,0,0,1,.83.69v.16a.94.94,0,0,1-.8,1h-.07Z" class="cls-1"/><path d="M45.3,13.57h-.91V11H42.52v2.53h-.89V8.31h.89v2h1.87v-2h.91v5.24Z" class="cls-1"/><path d="M46.16,13.57V8.31h.89v5.26Z" class="cls-1"/><path d="M51.1,9.27A1.76,1.76,0,0,0,50.18,9c-.92,0-1.58.76-1.58,1.95a1.77,1.77,0,0,0,1.6,2,1.68,1.68,0,0,0,.9-.26l.25.65a2.26,2.26,0,0,1-1.19.37,2.53,2.53,0,0,1-2.52-2.75,2.54,2.54,0,0,1,2.54-2.68,2.21,2.21,0,0,1,1.21.4Z" class="cls-1"/></g></g></svg>