<svg xmlns="http://www.w3.org/2000/svg" viewBox="0 0 20.89 20.89"><defs><style>.cls-1{fill:#deac26}</style></defs><g id="Capa_2" data-name="Capa 2"><g id="Layer_1" data-name="Layer 1"><path d="M10.45,12.28a1.84,1.84,0,0,0,1.84-1.84,1.8,1.8,0,0,0-.35-1.07,1.85,1.85,0,0,0-1.49-.76,1.84,1.84,0,1,0,0,3.67Z" class="cls-1"/><path d="M14.65,9.37H13.09a2.77,2.77,0,0,1,.21,1.08,2.86,2.86,0,0,1-5.71,0A3,3,0,0,1,7.8,9.37H6.24v4.28a1,1,0,0,0,1,1h6.41a1,1,0,0,0,1-1h0Z" class="cls-1"/><path d="M10.45,0A10.45,10.45,0,1,0,20.89,10.44,10.45,10.45,0,0,0,10.45,0Zm5.22,9.37v4.28a2,2,0,0,1-2,2H7.24a2,2,0,0,1-2-2V7.24a2,2,0,0,1,2-2h6.41a2,2,0,0,1,2,2Z" class="cls-1"/><polygon points="14.46 8.2 14.46 6.66 14.46 6.43 14.23 6.43 12.69 6.43 12.7 8.2 14.46 8.2" class="cls-1"/></g></g></svg>