<svg xmlns="http://www.w3.org/2000/svg" viewBox="0 0 40 16.64"><defs><style>.cls-1{fill:#acacac;}</style></defs><g id="Capa_2" data-name="Capa 2"><g id="Layer_1" data-name="Layer 1"><path class="cls-1" d="M39.93,5.45a2,2,0,0,0,0-1,2.42,2.42,0,0,0-.12-.35l-7.9-.83L32,3.09h6.9a6.34,6.34,0,0,0-2-.89h-7a7.84,7.84,0,0,0-1.5.29S24.86,3.59,23.34,4c-.51.13-.95.13-1.26-.31a3,3,0,0,1-.44-1.41A2.38,2.38,0,0,0,20.21.11a1.43,1.43,0,0,0-1.56.27c-.08.11-.09.25.16.31,0,0-1.11.23-.8.53,0,0,1.08-.15.87.53A18.29,18.29,0,0,1,18,3.57a.83.83,0,0,1-.94.49C15.8,3.8,11.6,2.49,11.6,2.49a7.83,7.83,0,0,0-1.51-.29h-7a6.34,6.34,0,0,0-2,.89H8l.09.22-7.9.83a2.48,2.48,0,0,0-.13.35,2.08,2.08,0,0,0,0,1L8.13,4l.18.22L.6,6.55A6.32,6.32,0,0,0,2,7.89l6.65-3a1.9,1.9,0,0,0,.2.22L3.2,8.67c.4.22.83.43,1.28.63l5-3.76c.13.08.27.15.43.23l-4.39,4c.42.15.86.29,1.31.42L10.48,6l.62.24L8,10.46l.66.14.54.09L12,6.51c.18.06.36.1.55.15l-2.45,4.16c.5.07,1,.11,1.46.14l1.84-4.11.14,0,.65.12-1.62,4c.48,0,.93,0,1.37,0L15,7.12l.63.06-.9,3.71c.42-.05.81-.12,1.19-.2l.57-3.47H17l-.45,3.54,1.2-.66a5.35,5.35,0,0,1,.57-.51L15.78,14l.6.44,2-3.62a1.15,1.15,0,0,0,.14.17l-1.3,4.06.64.47,1.06-4.25a1.51,1.51,0,0,0,.18.09l-.27,4.87.55.4s.48-5.1.56-5.1h.21l.49,5.11.54-.4-.27-4.87a1.11,1.11,0,0,0,.19-.09l1.05,4.25.64-.47L21.49,11a1.15,1.15,0,0,0,.14-.17l2,3.62.6-.44L21.66,9.59a5.35,5.35,0,0,1,.57.51l1.2.66L23,7.22h.54l.57,3.47c.37.08.77.15,1.19.2l-.9-3.71L25,7.12,26.09,11c.44,0,.9,0,1.37,0L25.84,7l.66-.12.14,0L28.48,11c.47,0,1-.07,1.45-.14L27.49,6.66c.19,0,.37-.09.55-.15l2.72,4.18.54-.09.65-.14L28.89,6.25,29.51,6l3.63,4.14c.46-.13.89-.27,1.32-.42l-4.39-4c.15-.08.3-.15.43-.23l5,3.76a13.88,13.88,0,0,0,1.28-.63l-5.62-3.6a1.9,1.9,0,0,0,.2-.22l6.65,3A6.55,6.55,0,0,0,39.4,6.55L31.69,4.17,31.86,4Z"/></g></g></svg>